<svg width="249" height="33" viewBox="0 0 249 33" fill="none" xmlns="http://www.w3.org/2000/svg">
<g clip-path="url(#clip0_39_40)">
<path d="M1.496 10.692C0.498667 9.92933 0 8.74133 0 7.128C0 5.48533 0.528 4.23867 1.584 3.388C2.66933 2.53733 4.136 2.112 5.984 2.112C7.15733 2.112 9.13733 2.31733 11.924 2.728L14.916 3.168C15.9133 3.28533 16.9253 3.344 17.952 3.344C19.008 3.344 19.888 3.124 20.592 2.684C21.648 3.62267 22.176 4.76667 22.176 6.116C22.176 7.46533 21.5747 8.624 20.372 9.592C19.14 10.6187 17.732 11.132 16.148 11.132C15.3853 11.132 14.388 11.0293 13.156 10.824C11.7187 15.3413 11 19.1693 11 22.308C11 25.4467 11.792 27.8373 13.376 29.48C12.6427 30.8 11.7333 31.7093 10.648 32.208C9.56267 32.736 8.19867 33 6.556 33C4.94267 33 3.62267 32.56 2.596 31.68C1.59867 30.7707 1.1 29.392 1.1 27.544C1.1 25.4027 1.68667 22.572 2.86 19.052C4.03333 15.5613 5.5 12.4813 7.26 9.812C6.40933 9.724 5.544 9.68 4.664 9.68C2.84533 9.68 1.78933 10.0173 1.496 10.692Z" fill="#162521"/>
<path d="M20.622 30.8C19.9473 30.0373 19.4487 29.0547 19.126 27.852C18.8327 26.6493 18.686 25.0653 18.686 23.1C18.686 21.1347 19.0233 19.2573 19.698 17.468C20.3727 15.6787 21.326 14.1387 22.558 12.848C25.0807 10.1493 28.4247 8.79999 32.59 8.79999C34.086 8.79999 35.3767 9.04932 36.462 9.54799L43.986 8.79999L40.73 25.96C40.642 26.312 40.598 26.8107 40.598 27.456C40.598 28.1013 40.7887 28.6293 41.17 29.04C41.5807 29.4507 42.0793 29.6853 42.666 29.744C42.3727 30.7413 41.6833 31.5333 40.598 32.12C39.542 32.7067 38.4127 33 37.21 33C36.0073 33 34.9953 32.7653 34.174 32.296C33.382 31.856 32.8687 31.2547 32.634 30.492C32.1647 31.2253 31.4313 31.8267 30.434 32.296C29.4367 32.7653 28.2633 33 26.914 33C25.594 33 24.3913 32.824 23.306 32.472C22.2207 32.12 21.326 31.5627 20.622 30.8ZM29.906 12.936C29.5833 13.464 29.2753 14.1827 28.982 15.092C28.6887 15.972 28.2927 17.6147 27.794 20.02C27.3247 22.396 27.09 24.4347 27.09 26.136C27.09 27.8373 27.222 28.9373 27.486 29.436C27.75 29.9347 28.1167 30.184 28.586 30.184C29.5247 30.184 30.3313 29.744 31.006 28.864C31.71 27.9547 32.194 26.708 32.458 25.124L34.79 12.232C34.174 11.704 33.4993 11.44 32.766 11.44C32.062 11.44 31.49 11.5573 31.05 11.792C30.6393 12.0267 30.258 12.408 29.906 12.936Z" fill="#162521"/>
<path d="M56.9189 29.7C56.0096 31.9 54.1029 33 51.1989 33C49.7029 33 48.4856 32.4867 47.5469 31.46C46.7549 30.5507 46.3589 29.6413 46.3589 28.732C46.3589 26.356 46.9016 22.8507 47.9869 18.216L49.6149 9.68L58.5469 8.8L55.8629 22.704C55.3642 24.8747 55.1149 26.3413 55.1149 27.104C55.1149 28.776 55.7162 29.6413 56.9189 29.7ZM50.4069 3.564C50.4069 2.42 50.8762 1.54 51.8149 0.923999C52.7829 0.308 53.9562 0 55.3349 0C56.7136 0 57.8136 0.308 58.6349 0.923999C59.4856 1.54 59.9109 2.42 59.9109 3.564C59.9109 4.708 59.4416 5.57333 58.5029 6.16C57.5936 6.74667 56.4496 7.04 55.0709 7.04C53.6922 7.04 52.5629 6.74667 51.6829 6.16C50.8322 5.57333 50.4069 4.708 50.4069 3.564Z" fill="#162521"/>
<path d="M71.1834 29.7C70.2741 31.9 68.3674 33 65.4634 33C63.9967 33 62.7941 32.4867 61.8554 31.46C61.0927 30.6093 60.7114 29.7 60.7114 28.732C60.7114 26.532 61.2247 23.0267 62.2514 18.216L65.4634 1.32L74.3954 0.440002L70.1274 22.704C69.6287 24.8747 69.3794 26.3413 69.3794 27.104C69.3794 28.776 69.9807 29.6413 71.1834 29.7Z" fill="#162521"/>
<path d="M88.089 16.676C88.4997 15.5907 88.705 14.5787 88.705 13.64C88.705 11.9093 88.001 11.044 86.593 11.044C85.8597 11.044 85.185 11.3813 84.569 12.056C83.9824 12.7013 83.689 13.4347 83.689 14.256C83.689 14.8427 83.9237 15.3707 84.393 15.84C85.0677 16.4853 86.2704 17.336 88.001 18.392C89.7317 19.448 90.9197 20.416 91.565 21.296C92.2397 22.1467 92.577 23.1733 92.577 24.376C92.577 25.5493 92.2837 26.6787 91.697 27.764C91.1397 28.8493 90.3477 29.7733 89.321 30.536C87.121 32.1787 84.261 33 80.741 33C78.8344 33 77.1477 32.5013 75.681 31.504C74.2144 30.536 73.481 29.48 73.481 28.336C73.481 27.192 73.8917 26.2827 74.713 25.608C75.5637 24.9333 76.605 24.596 77.837 24.596C79.069 24.596 80.0664 24.8307 80.829 25.3C80.4477 26.268 80.257 27.0747 80.257 27.72C80.257 29.656 81.0784 30.624 82.721 30.624C83.425 30.624 84.0117 30.404 84.481 29.964C84.9504 29.524 85.185 28.9227 85.185 28.16C85.185 26.664 83.9237 25.124 81.401 23.54C79.3477 22.1907 78.0864 21.252 77.617 20.724C76.825 19.7853 76.429 18.7293 76.429 17.556C76.429 16.3827 76.7077 15.2387 77.265 14.124C77.8224 13.0093 78.6144 12.056 79.641 11.264C81.7824 9.62132 84.7157 8.79999 88.441 8.79999C90.3477 8.79999 91.8584 9.18132 92.973 9.94399C94.117 10.7067 94.689 11.7333 94.689 13.024C94.689 14.3147 94.293 15.3267 93.501 16.06C92.7384 16.7933 91.653 17.16 90.245 17.16C89.277 17.16 88.5584 16.9987 88.089 16.676Z" fill="#162521"/>
<path d="M114.723 31.372C112.113 32.4573 109.209 33 106.011 33C103.195 33 100.834 32.2667 98.9277 30.8C96.845 29.2453 95.8037 27.0893 95.8037 24.332C95.8037 20.2547 98.253 17.644 103.151 16.5C102.33 14.1827 101.919 12.2173 101.919 10.604C101.919 8.99068 102.227 7.67068 102.843 6.64401C103.459 5.58801 104.295 4.72268 105.351 4.04801C107.346 2.81601 110.015 2.20001 113.359 2.20001C115.677 2.20001 117.569 2.64001 119.035 3.52001C120.531 4.42934 121.279 5.55868 121.279 6.90801C121.279 8.43334 120.751 9.62134 119.695 10.472C118.757 11.264 117.51 11.66 115.955 11.66C115.046 11.66 114.445 11.616 114.151 11.528C114.269 10.8827 114.327 10.032 114.327 8.97601C114.327 7.92001 114.151 7.04001 113.799 6.33601C113.447 5.60268 112.978 5.23601 112.391 5.23601C111.306 5.23601 110.558 5.72001 110.147 6.68801C109.737 7.62668 109.531 8.80001 109.531 10.208C109.531 11.5867 109.663 12.9213 109.927 14.212C110.221 15.4733 110.631 16.72 111.159 17.952C112.274 20.504 113.726 22.6453 115.515 24.376C115.985 23.232 116.249 21.7653 116.307 19.976C116.307 18.392 115.765 17.1307 114.679 16.192C115.09 15.8107 115.691 15.5027 116.483 15.268C117.275 15.0333 118.023 14.916 118.727 14.916C120.282 14.916 121.426 15.3853 122.159 16.324C122.893 17.2627 123.259 18.48 123.259 19.976C123.259 22.6453 122.306 25.08 120.399 27.28C121.133 27.4853 121.837 27.588 122.511 27.588C123.978 27.588 124.946 27.3973 125.415 27.016C125.65 27.5733 125.767 28.2187 125.767 28.952C125.767 30.4187 125.283 31.46 124.315 32.076C123.377 32.692 122.057 33 120.355 33C118.654 33 116.777 32.4573 114.723 31.372ZM104.647 19.844C104.002 20.4893 103.679 21.384 103.679 22.528C103.679 23.672 103.811 24.6107 104.075 25.344C104.339 26.048 104.677 26.664 105.087 27.192C106.026 28.336 107.111 28.908 108.343 28.908C109.458 28.908 110.338 28.7907 110.983 28.556C108.519 26.2387 106.407 23.3347 104.647 19.844Z" fill="#162521"/>
<path d="M130.961 10.692C129.964 9.92933 129.465 8.74133 129.465 7.128C129.465 5.48533 129.993 4.23867 131.049 3.388C132.134 2.53733 133.601 2.112 135.449 2.112C136.622 2.112 138.602 2.31733 141.389 2.728L144.381 3.168C145.378 3.28533 146.39 3.344 147.417 3.344C148.473 3.344 149.353 3.124 150.057 2.684C151.113 3.62267 151.641 4.76667 151.641 6.116C151.641 7.46533 151.04 8.624 149.837 9.592C148.605 10.6187 147.197 11.132 145.613 11.132C144.85 11.132 143.853 11.0293 142.621 10.824C141.184 15.3413 140.465 19.1693 140.465 22.308C140.465 25.4467 141.257 27.8373 142.841 29.48C142.108 30.8 141.198 31.7093 140.113 32.208C139.028 32.736 137.664 33 136.021 33C134.408 33 133.088 32.56 132.061 31.68C131.064 30.7707 130.565 29.392 130.565 27.544C130.565 25.4027 131.152 22.572 132.325 19.052C133.498 15.5613 134.965 12.4813 136.725 9.812C135.874 9.724 135.009 9.68 134.129 9.68C132.31 9.68 131.254 10.0173 130.961 10.692Z" fill="#162521"/>
<path d="M163.728 19.756C164.784 17.8787 165.312 15.9867 165.312 14.08C165.312 12.8187 164.858 12.188 163.948 12.188C163.244 12.188 162.526 12.7893 161.792 13.992C161.03 15.1947 160.531 16.5733 160.296 18.128L158.008 32.12L148.9 33L153.388 9.67999L160.648 8.79999L159.856 13.244C161.294 10.2813 163.626 8.79999 166.852 8.79999C168.554 8.79999 169.859 9.23999 170.768 10.12C171.707 11 172.176 12.3493 172.176 14.168C172.176 15.9573 171.575 17.424 170.372 18.568C169.199 19.712 167.6 20.284 165.576 20.284C164.696 20.284 164.08 20.108 163.728 19.756Z" fill="#162521"/>
<path d="M174.794 30.8C174.119 30.0373 173.62 29.0547 173.298 27.852C173.004 26.6493 172.858 25.0653 172.858 23.1C172.858 21.1347 173.195 19.2573 173.87 17.468C174.544 15.6787 175.498 14.1387 176.73 12.848C179.252 10.1493 182.596 8.79999 186.762 8.79999C188.258 8.79999 189.548 9.04932 190.634 9.54799L198.158 8.79999L194.902 25.96C194.814 26.312 194.77 26.8107 194.77 27.456C194.77 28.1013 194.96 28.6293 195.342 29.04C195.752 29.4507 196.251 29.6853 196.838 29.744C196.544 30.7413 195.855 31.5333 194.77 32.12C193.714 32.7067 192.584 33 191.382 33C190.179 33 189.167 32.7653 188.346 32.296C187.554 31.856 187.04 31.2547 186.806 30.492C186.336 31.2253 185.603 31.8267 184.606 32.296C183.608 32.7653 182.435 33 181.086 33C179.766 33 178.563 32.824 177.478 32.472C176.392 32.12 175.498 31.5627 174.794 30.8ZM184.078 12.936C183.755 13.464 183.447 14.1827 183.154 15.092C182.86 15.972 182.464 17.6147 181.966 20.02C181.496 22.396 181.262 24.4347 181.262 26.136C181.262 27.8373 181.394 28.9373 181.658 29.436C181.922 29.9347 182.288 30.184 182.758 30.184C183.696 30.184 184.503 29.744 185.178 28.864C185.882 27.9547 186.366 26.708 186.63 25.124L188.962 12.232C188.346 11.704 187.671 11.44 186.938 11.44C186.234 11.44 185.662 11.5573 185.222 11.792C184.811 12.0267 184.43 12.408 184.078 12.936Z" fill="#162521"/>
<path d="M211.091 29.7C210.181 31.9 208.275 33 205.371 33C203.875 33 202.657 32.4867 201.719 31.46C200.927 30.5507 200.531 29.6413 200.531 28.732C200.531 26.356 201.073 22.8507 202.159 18.216L203.787 9.68L212.719 8.8L210.035 22.704C209.536 24.8747 209.287 26.3413 209.287 27.104C209.287 28.776 209.888 29.6413 211.091 29.7ZM204.579 3.564C204.579 2.42 205.048 1.54 205.987 0.923999C206.955 0.308 208.128 0 209.507 0C210.885 0 211.985 0.308 212.807 0.923999C213.657 1.54 214.083 2.42 214.083 3.564C214.083 4.708 213.613 5.57333 212.675 6.16C211.765 6.74667 210.621 7.04 209.243 7.04C207.864 7.04 206.735 6.74667 205.855 6.16C205.004 5.57333 204.579 4.708 204.579 3.564Z" fill="#162521"/>
<path d="M225.355 29.7C224.446 31.9 222.539 33 219.635 33C218.169 33 216.966 32.4867 216.027 31.46C215.265 30.6093 214.883 29.7 214.883 28.732C214.883 26.532 215.397 23.0267 216.423 18.216L219.635 1.32L228.567 0.440002L224.299 22.704C223.801 24.8747 223.551 26.3413 223.551 27.104C223.551 28.776 224.153 29.6413 225.355 29.7Z" fill="#162521"/>
<path d="M242.261 16.676C242.672 15.5907 242.877 14.5787 242.877 13.64C242.877 11.9093 242.173 11.044 240.765 11.044C240.032 11.044 239.357 11.3813 238.741 12.056C238.154 12.7013 237.861 13.4347 237.861 14.256C237.861 14.8427 238.096 15.3707 238.565 15.84C239.24 16.4853 240.442 17.336 242.173 18.392C243.904 19.448 245.092 20.416 245.737 21.296C246.412 22.1467 246.749 23.1733 246.749 24.376C246.749 25.5493 246.456 26.6787 245.869 27.764C245.312 28.8493 244.52 29.7733 243.493 30.536C241.293 32.1787 238.433 33 234.913 33C233.006 33 231.32 32.5013 229.853 31.504C228.386 30.536 227.653 29.48 227.653 28.336C227.653 27.192 228.064 26.2827 228.885 25.608C229.736 24.9333 230.777 24.596 232.009 24.596C233.241 24.596 234.238 24.8307 235.001 25.3C234.62 26.268 234.429 27.0747 234.429 27.72C234.429 29.656 235.25 30.624 236.893 30.624C237.597 30.624 238.184 30.404 238.653 29.964C239.122 29.524 239.357 28.9227 239.357 28.16C239.357 26.664 238.096 25.124 235.573 23.54C233.52 22.1907 232.258 21.252 231.789 20.724C230.997 19.7853 230.601 18.7293 230.601 17.556C230.601 16.3827 230.88 15.2387 231.437 14.124C231.994 13.0093 232.786 12.056 233.813 11.264C235.954 9.62132 238.888 8.79999 242.613 8.79999C244.52 8.79999 246.03 9.18132 247.145 9.94399C248.289 10.7067 248.861 11.7333 248.861 13.024C248.861 14.3147 248.465 15.3267 247.673 16.06C246.91 16.7933 245.825 17.16 244.417 17.16C243.449 17.16 242.73 16.9987 242.261 16.676Z" fill="#162521"/>
</g>
<defs>
<clipPath id="clip0_39_40">
<rect width="249" height="33" fill="white"/>
</clipPath>
</defs>
</svg>
